<mxfile host="app.diagrams.net" modified="2023-07-26T01:38:41.902Z" agent="Mozilla/5.0 (Windows NT 10.0; Win64; x64) AppleWebKit/537.36 (KHTML, like Gecko) Chrome/115.0.0.0 Safari/537.36 Edg/115.0.1901.183" etag="8sY-LlLDLtqlWhQUuvZG" version="21.6.2" type="device">
  <diagram name="Page-1" id="bs9gyHaVoG-HjbtfX3a6">
    <mxGraphModel dx="617" dy="456" grid="1" gridSize="10" guides="1" tooltips="1" connect="1" arrows="1" fold="1" page="1" pageScale="1" pageWidth="850" pageHeight="1100" math="0" shadow="0">
      <root>
        <mxCell id="0" />
        <mxCell id="1" parent="0" />
        <mxCell id="LBniw8iPhG_3ppIaF3WB-22" value="" style="rounded=0;whiteSpace=wrap;html=1;dashed=1;strokeColor=#007FFF;" vertex="1" parent="1">
          <mxGeometry x="20" y="230" width="180" height="130" as="geometry" />
        </mxCell>
        <mxCell id="LBniw8iPhG_3ppIaF3WB-23" value="" style="rounded=0;whiteSpace=wrap;html=1;dashed=1;strokeColor=#6c8ebf;fillColor=#dae8fc;" vertex="1" parent="1">
          <mxGeometry x="64.38" y="272.5" width="91.25" height="45" as="geometry" />
        </mxCell>
        <mxCell id="LBniw8iPhG_3ppIaF3WB-24" value="" style="image;aspect=fixed;html=1;points=[];align=center;fontSize=12;image=img/lib/azure2/app_services/API_Management_Services.svg;" vertex="1" parent="1">
          <mxGeometry x="92.5" y="278.84999999999997" width="35" height="32.31" as="geometry" />
        </mxCell>
        <mxCell id="LBniw8iPhG_3ppIaF3WB-25" value="" style="image;aspect=fixed;html=1;points=[];align=center;fontSize=12;image=img/lib/azure2/networking/Virtual_Networks.svg;" vertex="1" parent="1">
          <mxGeometry x="20" y="360" width="27" height="16.12" as="geometry" />
        </mxCell>
        <mxCell id="LBniw8iPhG_3ppIaF3WB-31" value="&lt;b&gt;dev&lt;/b&gt;" style="text;strokeColor=none;align=center;fillColor=none;html=1;verticalAlign=middle;whiteSpace=wrap;rounded=0;fontColor=#007FFF;" vertex="1" parent="1">
          <mxGeometry x="20" y="230" width="30" height="20" as="geometry" />
        </mxCell>
        <mxCell id="LBniw8iPhG_3ppIaF3WB-33" value="APIOps Publisher" style="text;strokeColor=none;align=center;fillColor=none;html=1;verticalAlign=middle;whiteSpace=wrap;rounded=0;labelBackgroundColor=default;fontColor=#007FFF;fontStyle=1;fontSize=11;" vertex="1" parent="1">
          <mxGeometry x="220" y="270" width="160" height="30" as="geometry" />
        </mxCell>
        <mxCell id="LBniw8iPhG_3ppIaF3WB-39" value="" style="shape=image;imageAspect=0;aspect=fixed;verticalLabelPosition=bottom;verticalAlign=top;image=data:image/svg+xml,PHN2ZyB4bWxucz0iaHR0cDovL3d3dy53My5vcmcvMjAwMC9zdmciIHdpZHRoPSIxNy40NjgxMzk2NDg0Mzc1IiBoZWlnaHQ9IjEwLjQwOTgxODY0OTI5MTk5MiIgdmlld0JveD0iMC4yNjYyNTUxOTk5MDkyMTAyIDMuNzk1NjE5NzI2MTgxMDMwMyAxNy40NjgxMzk2NDg0Mzc1IDEwLjQwOTgxODY0OTI5MTk5MiI+JiN4YTsgIDxkZWZzPiYjeGE7ICAgIDxsaW5lYXJHcmFkaWVudCBpZD0iYmNlYjYwZGQtOGI4Yy00MDk4LTk0ZjgtYWViNGRiMmVkYWVmIiB4MT0iOS4wMzMiIHkxPSIxMC4zMDUiIHgyPSI5LjAzMyIgeTI9IjcuNjk1IiBncmFkaWVudFVuaXRzPSJ1c2VyU3BhY2VPblVzZSI+JiN4YTsgICAgICA8c3RvcCBvZmZzZXQ9IjAiIHN0b3AtY29sb3I9IiM1ZTk2MjQiLz4mI3hhOyAgICAgIDxzdG9wIG9mZnNldD0iMC4yNDEiIHN0b3AtY29sb3I9IiM2ZmIwMmEiLz4mI3hhOyAgICAgIDxzdG9wIG9mZnNldD0iMC41MDEiIHN0b3AtY29sb3I9IiM3Y2M1MmYiLz4mI3hhOyAgICAgIDxzdG9wIG9mZnNldD0iMC43NTYiIHN0b3AtY29sb3I9IiM4M2QyMzIiLz4mI3hhOyAgICAgIDxzdG9wIG9mZnNldD0iMSIgc3RvcC1jb2xvcj0iIzg2ZDYzMyIvPiYjeGE7ICAgIDwvbGluZWFyR3JhZGllbnQ+JiN4YTsgIDwvZGVmcz4mI3hhOyAgPGcgaWQ9ImFjNzVjMjFlLTJhOTMtNDY0Zi04MDQ4LWYxNTE4ZGFiOGI3NSI+JiN4YTsgICAgPGc+JiN4YTsgICAgICA8cGF0aCBkPSJNOS4wMzEsNy43QTEuMzA1LDEuMzA1LDAsMSwwLDEwLjMzOCw5LDEuMzA1LDEuMzA1LDAsMCwwLDkuMDMxLDcuN1oiIGZpbGw9InVybCgjYmNlYjYwZGQtOGI4Yy00MDk4LTk0ZjgtYWViNGRiMmVkYWVmKSIvPiYjeGE7ICAgICAgPGc+JiN4YTsgICAgICAgIDxwYXRoIGQ9Ik0yLjk2MSw3LjM3NGguODg4YS4yODQuMjg0LDAsMCwxLC4yODQuMjg0djYuNTUxYS41NjguNTY4LDAsMCwxLS41NjguNTY4SDIuNjc3YTAsMCwwLDAsMSwwLDBWNy42NTlBLjI4NC4yODQsMCwwLDEsMi45NjEsNy4zNzRaIiB0cmFuc2Zvcm09InRyYW5zbGF0ZSgxMy42NTMgMTYuNDg1KSByb3RhdGUoMTM0LjkxOSkiIGZpbGw9IiM1MGU2ZmYiLz4mI3hhOyAgICAgICAgPHBhdGggZD0iTTIuOTEzLDMuMjQ0SDMuOGEuMjg0LjI4NCwwLDAsMSwuMjg0LjI4NHY3LjAxNWEwLDAsMCwwLDEsMCwwSDMuMmEuNTY4LjU2OCwwLDAsMS0uNTY4LS41NjhWMy41MjhhLjI4NC4yODQsMCwwLDEsLjI4NC0uMjg0WiIgdHJhbnNmb3JtPSJ0cmFuc2xhdGUoNS44NDcgLTAuMzU4KSByb3RhdGUoNDQuOTE5KSIgZmlsbD0iIzE0OTBkZiIvPiYjeGE7ICAgICAgICA8cGF0aCBkPSJNMTMuODY3LDcuMzc0aC44ODhhLjU2OC41NjgsMCwwLDEsLjU2OC41Njh2Ni41NTFhLjI4NC4yODQsMCwwLDEtLjI4NC4yODRoLS44ODhhLjI4NC4yODQsMCwwLDEtLjI4NC0uMjg0VjcuMzc0YTAsMCwwLDAsMSwwLDBaIiB0cmFuc2Zvcm09InRyYW5zbGF0ZSgxMi4xMzIgLTcuMDc5KSByb3RhdGUoNDUuMDgxKSIgZmlsbD0iIzUwZTZmZiIvPiYjeGE7ICAgICAgICA8cGF0aCBkPSJNMTQuNDgzLDMuMjQ0aC44ODhhMCwwLDAsMCwxLDAsMHY3LjAxNWEuMjg0LjI4NCwwLDAsMS0uMjg0LjI4NEgxNC4yYS4yODQuMjg0LDAsMCwxLS4yODQtLjI4NFYzLjgxMmEuNTY4LjU2OCwwLDAsMSwuNTY4LS41NjhaIiB0cmFuc2Zvcm09InRyYW5zbGF0ZSgyOS44NzkgMS40MzUpIHJvdGF0ZSgxMzUuMDgxKSIgZmlsbD0iIzE0OTBkZiIvPiYjeGE7ICAgICAgPC9nPiYjeGE7ICAgIDwvZz4mI3hhOyAgPC9nPiYjeGE7PC9zdmc+;" vertex="1" parent="1">
          <mxGeometry x="64.38" y="317.5" width="18.75" height="11.03" as="geometry" />
        </mxCell>
        <mxCell id="LBniw8iPhG_3ppIaF3WB-47" value="" style="rounded=0;whiteSpace=wrap;html=1;dashed=1;strokeColor=#007FFF;" vertex="1" parent="1">
          <mxGeometry x="400" y="230" width="180" height="130" as="geometry" />
        </mxCell>
        <mxCell id="LBniw8iPhG_3ppIaF3WB-48" value="" style="rounded=0;whiteSpace=wrap;html=1;dashed=1;strokeColor=#6c8ebf;fillColor=#dae8fc;" vertex="1" parent="1">
          <mxGeometry x="444.38" y="272.5" width="91.25" height="45" as="geometry" />
        </mxCell>
        <mxCell id="LBniw8iPhG_3ppIaF3WB-49" value="" style="image;aspect=fixed;html=1;points=[];align=center;fontSize=12;image=img/lib/azure2/app_services/API_Management_Services.svg;" vertex="1" parent="1">
          <mxGeometry x="472.5" y="278.84999999999997" width="35" height="32.31" as="geometry" />
        </mxCell>
        <mxCell id="LBniw8iPhG_3ppIaF3WB-50" value="" style="image;aspect=fixed;html=1;points=[];align=center;fontSize=12;image=img/lib/azure2/networking/Virtual_Networks.svg;" vertex="1" parent="1">
          <mxGeometry x="400" y="360" width="27" height="16.12" as="geometry" />
        </mxCell>
        <mxCell id="LBniw8iPhG_3ppIaF3WB-51" value="&lt;b&gt;prod&lt;/b&gt;" style="text;strokeColor=none;align=center;fillColor=none;html=1;verticalAlign=middle;whiteSpace=wrap;rounded=0;fontColor=#007FFF;" vertex="1" parent="1">
          <mxGeometry x="403" y="230" width="30" height="20" as="geometry" />
        </mxCell>
        <mxCell id="LBniw8iPhG_3ppIaF3WB-52" value="" style="shape=image;imageAspect=0;aspect=fixed;verticalLabelPosition=bottom;verticalAlign=top;image=data:image/svg+xml,PHN2ZyB4bWxucz0iaHR0cDovL3d3dy53My5vcmcvMjAwMC9zdmciIHdpZHRoPSIxNy40NjgxMzk2NDg0Mzc1IiBoZWlnaHQ9IjEwLjQwOTgxODY0OTI5MTk5MiIgdmlld0JveD0iMC4yNjYyNTUxOTk5MDkyMTAyIDMuNzk1NjE5NzI2MTgxMDMwMyAxNy40NjgxMzk2NDg0Mzc1IDEwLjQwOTgxODY0OTI5MTk5MiI+JiN4YTsgIDxkZWZzPiYjeGE7ICAgIDxsaW5lYXJHcmFkaWVudCBpZD0iYmNlYjYwZGQtOGI4Yy00MDk4LTk0ZjgtYWViNGRiMmVkYWVmIiB4MT0iOS4wMzMiIHkxPSIxMC4zMDUiIHgyPSI5LjAzMyIgeTI9IjcuNjk1IiBncmFkaWVudFVuaXRzPSJ1c2VyU3BhY2VPblVzZSI+JiN4YTsgICAgICA8c3RvcCBvZmZzZXQ9IjAiIHN0b3AtY29sb3I9IiM1ZTk2MjQiLz4mI3hhOyAgICAgIDxzdG9wIG9mZnNldD0iMC4yNDEiIHN0b3AtY29sb3I9IiM2ZmIwMmEiLz4mI3hhOyAgICAgIDxzdG9wIG9mZnNldD0iMC41MDEiIHN0b3AtY29sb3I9IiM3Y2M1MmYiLz4mI3hhOyAgICAgIDxzdG9wIG9mZnNldD0iMC43NTYiIHN0b3AtY29sb3I9IiM4M2QyMzIiLz4mI3hhOyAgICAgIDxzdG9wIG9mZnNldD0iMSIgc3RvcC1jb2xvcj0iIzg2ZDYzMyIvPiYjeGE7ICAgIDwvbGluZWFyR3JhZGllbnQ+JiN4YTsgIDwvZGVmcz4mI3hhOyAgPGcgaWQ9ImFjNzVjMjFlLTJhOTMtNDY0Zi04MDQ4LWYxNTE4ZGFiOGI3NSI+JiN4YTsgICAgPGc+JiN4YTsgICAgICA8cGF0aCBkPSJNOS4wMzEsNy43QTEuMzA1LDEuMzA1LDAsMSwwLDEwLjMzOCw5LDEuMzA1LDEuMzA1LDAsMCwwLDkuMDMxLDcuN1oiIGZpbGw9InVybCgjYmNlYjYwZGQtOGI4Yy00MDk4LTk0ZjgtYWViNGRiMmVkYWVmKSIvPiYjeGE7ICAgICAgPGc+JiN4YTsgICAgICAgIDxwYXRoIGQ9Ik0yLjk2MSw3LjM3NGguODg4YS4yODQuMjg0LDAsMCwxLC4yODQuMjg0djYuNTUxYS41NjguNTY4LDAsMCwxLS41NjguNTY4SDIuNjc3YTAsMCwwLDAsMSwwLDBWNy42NTlBLjI4NC4yODQsMCwwLDEsMi45NjEsNy4zNzRaIiB0cmFuc2Zvcm09InRyYW5zbGF0ZSgxMy42NTMgMTYuNDg1KSByb3RhdGUoMTM0LjkxOSkiIGZpbGw9IiM1MGU2ZmYiLz4mI3hhOyAgICAgICAgPHBhdGggZD0iTTIuOTEzLDMuMjQ0SDMuOGEuMjg0LjI4NCwwLDAsMSwuMjg0LjI4NHY3LjAxNWEwLDAsMCwwLDEsMCwwSDMuMmEuNTY4LjU2OCwwLDAsMS0uNTY4LS41NjhWMy41MjhhLjI4NC4yODQsMCwwLDEsLjI4NC0uMjg0WiIgdHJhbnNmb3JtPSJ0cmFuc2xhdGUoNS44NDcgLTAuMzU4KSByb3RhdGUoNDQuOTE5KSIgZmlsbD0iIzE0OTBkZiIvPiYjeGE7ICAgICAgICA8cGF0aCBkPSJNMTMuODY3LDcuMzc0aC44ODhhLjU2OC41NjgsMCwwLDEsLjU2OC41Njh2Ni41NTFhLjI4NC4yODQsMCwwLDEtLjI4NC4yODRoLS44ODhhLjI4NC4yODQsMCwwLDEtLjI4NC0uMjg0VjcuMzc0YTAsMCwwLDAsMSwwLDBaIiB0cmFuc2Zvcm09InRyYW5zbGF0ZSgxMi4xMzIgLTcuMDc5KSByb3RhdGUoNDUuMDgxKSIgZmlsbD0iIzUwZTZmZiIvPiYjeGE7ICAgICAgICA8cGF0aCBkPSJNMTQuNDgzLDMuMjQ0aC44ODhhMCwwLDAsMCwxLDAsMHY3LjAxNWEuMjg0LjI4NCwwLDAsMS0uMjg0LjI4NEgxNC4yYS4yODQuMjg0LDAsMCwxLS4yODQtLjI4NFYzLjgxMmEuNTY4LjU2OCwwLDAsMSwuNTY4LS41NjhaIiB0cmFuc2Zvcm09InRyYW5zbGF0ZSgyOS44NzkgMS40MzUpIHJvdGF0ZSgxMzUuMDgxKSIgZmlsbD0iIzE0OTBkZiIvPiYjeGE7ICAgICAgPC9nPiYjeGE7ICAgIDwvZz4mI3hhOyAgPC9nPiYjeGE7PC9zdmc+;" vertex="1" parent="1">
          <mxGeometry x="444.38" y="317.5" width="18.75" height="11.03" as="geometry" />
        </mxCell>
        <mxCell id="LBniw8iPhG_3ppIaF3WB-54" style="edgeStyle=orthogonalEdgeStyle;rounded=0;orthogonalLoop=1;jettySize=auto;html=1;strokeColor=#B266FF;dashed=1;" edge="1" parent="1" source="LBniw8iPhG_3ppIaF3WB-24" target="LBniw8iPhG_3ppIaF3WB-49">
          <mxGeometry relative="1" as="geometry" />
        </mxCell>
      </root>
    </mxGraphModel>
  </diagram>
</mxfile>
